<mxfile host="app.diagrams.net" modified="2022-05-30T16:55:44.999Z" agent="5.0 (Windows NT 10.0; Win64; x64) AppleWebKit/537.36 (KHTML, like Gecko) Chrome/101.0.4951.67 Safari/537.36" etag="9yOk3az5yrnOm_5DLY-4" version="18.1.3" type="github">
  <diagram name="Data Layer" id="5f0bae14-7c28-e335-631c-24af17079c00">
    <mxGraphModel dx="1422" dy="762" grid="1" gridSize="10" guides="1" tooltips="1" connect="1" arrows="1" fold="1" page="1" pageScale="1" pageWidth="1100" pageHeight="850" background="none" math="0" shadow="0">
      <root>
        <mxCell id="0" />
        <mxCell id="1" parent="0" />
        <mxCell id="39150e848f15840c-1" value="TripXML GraphQL" style="verticalAlign=top;align=left;spacingTop=8;spacingLeft=2;spacingRight=12;shape=cube;size=10;direction=south;fontStyle=4;html=1;rounded=0;shadow=0;comic=0;labelBackgroundColor=none;strokeWidth=1;fontFamily=Verdana;fontSize=12" parent="1" vertex="1">
          <mxGeometry x="85" y="183" width="740" height="117" as="geometry" />
        </mxCell>
        <mxCell id="39150e848f15840c-3" value="Customer" style="verticalAlign=top;align=left;spacingTop=8;spacingLeft=2;spacingRight=12;shape=cube;size=10;direction=south;fontStyle=4;html=1;rounded=0;shadow=0;comic=0;labelBackgroundColor=none;strokeWidth=1;fontFamily=Verdana;fontSize=12" parent="1" vertex="1">
          <mxGeometry x="135" y="483" width="260" height="295" as="geometry" />
        </mxCell>
        <mxCell id="S-nyKYHqi0cGhIQpScfs-20" style="edgeStyle=orthogonalEdgeStyle;rounded=0;orthogonalLoop=1;jettySize=auto;html=1;exitX=0.5;exitY=1;exitDx=0;exitDy=0;entryX=0.5;entryY=0;entryDx=0;entryDy=0;" parent="1" source="39150e848f15840c-5" target="S-nyKYHqi0cGhIQpScfs-8" edge="1">
          <mxGeometry relative="1" as="geometry" />
        </mxCell>
        <mxCell id="S-nyKYHqi0cGhIQpScfs-1" value="SQL" style="shape=cylinder3;whiteSpace=wrap;html=1;boundedLbl=1;backgroundOutline=1;size=15;fillColor=#d5e8d4;strokeColor=#82b366;" parent="1" vertex="1">
          <mxGeometry x="275" y="96" width="60" height="80" as="geometry" />
        </mxCell>
        <mxCell id="S-nyKYHqi0cGhIQpScfs-38" style="edgeStyle=elbowEdgeStyle;rounded=0;orthogonalLoop=1;jettySize=auto;html=1;exitX=0;exitY=0.5;exitDx=0;exitDy=0;exitPerimeter=0;" parent="1" source="S-nyKYHqi0cGhIQpScfs-2" target="S-nyKYHqi0cGhIQpScfs-4" edge="1">
          <mxGeometry relative="1" as="geometry">
            <Array as="points">
              <mxPoint x="625" y="153" />
            </Array>
          </mxGeometry>
        </mxCell>
        <mxCell id="S-nyKYHqi0cGhIQpScfs-2" value="SQL" style="shape=cylinder3;whiteSpace=wrap;html=1;boundedLbl=1;backgroundOutline=1;size=15;fillColor=#fff2cc;strokeColor=#d6b656;" parent="1" vertex="1">
          <mxGeometry x="745" y="96" width="60" height="80" as="geometry" />
        </mxCell>
        <mxCell id="S-nyKYHqi0cGhIQpScfs-5" value="" style="endArrow=none;dashed=1;html=1;dashPattern=1 3;strokeWidth=2;rounded=0;entryX=0.273;entryY=0.419;entryDx=0;entryDy=0;entryPerimeter=0;" parent="1" edge="1">
          <mxGeometry width="50" height="50" relative="1" as="geometry">
            <mxPoint x="515" y="283" as="sourcePoint" />
            <mxPoint x="514.94" y="203.02999999999997" as="targetPoint" />
          </mxGeometry>
        </mxCell>
        <mxCell id="S-nyKYHqi0cGhIQpScfs-8" value="" style="ellipse;whiteSpace=wrap;html=1;rounded=0;shadow=0;comic=0;labelBackgroundColor=none;strokeWidth=1;fontFamily=Verdana;fontSize=12;align=center;" parent="1" vertex="1">
          <mxGeometry x="225" y="318" width="20" height="20" as="geometry" />
        </mxCell>
        <mxCell id="S-nyKYHqi0cGhIQpScfs-29" value="Stage" style="image;html=1;image=img/lib/clip_art/networking/Cloud_Server_Private_128x128.png" parent="1" vertex="1">
          <mxGeometry x="145" y="518" width="120" height="100" as="geometry" />
        </mxCell>
        <mxCell id="S-nyKYHqi0cGhIQpScfs-30" value="Production" style="image;html=1;image=img/lib/clip_art/networking/Cloud_Server_Private_128x128.png" parent="1" vertex="1">
          <mxGeometry x="255" y="651" width="120" height="100" as="geometry" />
        </mxCell>
        <mxCell id="S-nyKYHqi0cGhIQpScfs-34" style="edgeStyle=orthogonalEdgeStyle;rounded=0;orthogonalLoop=1;jettySize=auto;html=1;exitX=0.5;exitY=1;exitDx=0;exitDy=0;entryX=0.5;entryY=0;entryDx=0;entryDy=0;" parent="1" target="S-nyKYHqi0cGhIQpScfs-35" edge="1">
          <mxGeometry relative="1" as="geometry">
            <mxPoint x="695" y="268" as="sourcePoint" />
          </mxGeometry>
        </mxCell>
        <mxCell id="S-nyKYHqi0cGhIQpScfs-35" value="" style="ellipse;whiteSpace=wrap;html=1;rounded=0;shadow=0;comic=0;labelBackgroundColor=none;strokeWidth=1;fontFamily=Verdana;fontSize=12;align=center;" parent="1" vertex="1">
          <mxGeometry x="695.5" y="296" width="20" height="20" as="geometry" />
        </mxCell>
        <mxCell id="S-nyKYHqi0cGhIQpScfs-36" value="" style="endArrow=classic;html=1;rounded=0;exitX=0;exitY=0.5;exitDx=0;exitDy=0;" parent="1" source="S-nyKYHqi0cGhIQpScfs-8" target="S-nyKYHqi0cGhIQpScfs-29" edge="1">
          <mxGeometry width="50" height="50" relative="1" as="geometry">
            <mxPoint x="555" y="503" as="sourcePoint" />
            <mxPoint x="605" y="453" as="targetPoint" />
          </mxGeometry>
        </mxCell>
        <mxCell id="S-nyKYHqi0cGhIQpScfs-37" value="" style="endArrow=classic;html=1;rounded=0;exitX=0.5;exitY=1;exitDx=0;exitDy=0;" parent="1" source="S-nyKYHqi0cGhIQpScfs-8" target="S-nyKYHqi0cGhIQpScfs-30" edge="1">
          <mxGeometry width="50" height="50" relative="1" as="geometry">
            <mxPoint x="555" y="503" as="sourcePoint" />
            <mxPoint x="605" y="453" as="targetPoint" />
          </mxGeometry>
        </mxCell>
        <mxCell id="S-nyKYHqi0cGhIQpScfs-42" style="edgeStyle=elbowEdgeStyle;rounded=0;orthogonalLoop=1;jettySize=auto;html=1;entryX=0;entryY=0.75;entryDx=0;entryDy=0;" parent="1" source="S-nyKYHqi0cGhIQpScfs-40" target="S-nyKYHqi0cGhIQpScfs-30" edge="1">
          <mxGeometry relative="1" as="geometry" />
        </mxCell>
        <mxCell id="S-nyKYHqi0cGhIQpScfs-40" value="&lt;h1&gt;Server&lt;/h1&gt;&lt;p&gt;Users&lt;br&gt;&amp;nbsp; Providers&lt;br&gt;&amp;nbsp; &amp;nbsp; &amp;nbsp;Systems&lt;br&gt;&amp;nbsp; &amp;nbsp; &amp;nbsp; &amp;nbsp;PCCs&lt;/p&gt;" style="text;html=1;strokeColor=#666666;fillColor=#f5f5f5;spacing=5;spacingTop=-20;whiteSpace=wrap;overflow=hidden;rounded=0;fontColor=#333333;" parent="1" vertex="1">
          <mxGeometry x="145" y="651" width="90" height="110" as="geometry" />
        </mxCell>
        <mxCell id="S-nyKYHqi0cGhIQpScfs-43" value="TripXML Admin" style="sketch=0;outlineConnect=0;fontColor=#232F3E;gradientColor=none;strokeColor=#232F3E;fillColor=#ffffff;dashed=0;verticalLabelPosition=bottom;verticalAlign=top;align=center;html=1;fontSize=12;fontStyle=0;aspect=fixed;shape=mxgraph.aws4.resourceIcon;resIcon=mxgraph.aws4.http_notification;" parent="1" vertex="1">
          <mxGeometry x="45" y="313" width="100" height="100" as="geometry" />
        </mxCell>
        <mxCell id="S-nyKYHqi0cGhIQpScfs-45" value="" style="endArrow=classic;startArrow=classic;html=1;rounded=0;exitX=0;exitY=1;exitDx=0;exitDy=0;" parent="1" target="S-nyKYHqi0cGhIQpScfs-43" edge="1" source="S-nyKYHqi0cGhIQpScfs-8">
          <mxGeometry width="50" height="50" relative="1" as="geometry">
            <mxPoint x="225" y="313" as="sourcePoint" />
            <mxPoint x="605" y="453" as="targetPoint" />
          </mxGeometry>
        </mxCell>
        <mxCell id="S-nyKYHqi0cGhIQpScfs-46" value="" style="endArrow=classic;html=1;rounded=0;" parent="1" target="S-nyKYHqi0cGhIQpScfs-29" edge="1">
          <mxGeometry width="50" height="50" relative="1" as="geometry">
            <mxPoint x="695" y="313" as="sourcePoint" />
            <mxPoint x="605" y="453" as="targetPoint" />
          </mxGeometry>
        </mxCell>
        <mxCell id="S-nyKYHqi0cGhIQpScfs-47" value="" style="endArrow=classic;html=1;rounded=0;exitX=0;exitY=1;exitDx=0;exitDy=0;startArrow=none;" parent="1" source="S-nyKYHqi0cGhIQpScfs-35" target="S-nyKYHqi0cGhIQpScfs-30" edge="1">
          <mxGeometry width="50" height="50" relative="1" as="geometry">
            <mxPoint x="555" y="503" as="sourcePoint" />
            <mxPoint x="605" y="453" as="targetPoint" />
          </mxGeometry>
        </mxCell>
        <mxCell id="S-nyKYHqi0cGhIQpScfs-56" value="" style="endArrow=classic;startArrow=classic;html=1;rounded=0;" parent="1" source="39150e848f15840c-5" edge="1">
          <mxGeometry width="50" height="50" relative="1" as="geometry">
            <mxPoint x="595" y="663" as="sourcePoint" />
            <mxPoint x="275" y="123" as="targetPoint" />
            <Array as="points">
              <mxPoint x="225" y="121" />
            </Array>
          </mxGeometry>
        </mxCell>
        <mxCell id="4bImhPP7mC5-an95w_Qq-2" value="" style="ellipse;shape=cloud;whiteSpace=wrap;html=1;" vertex="1" parent="1">
          <mxGeometry x="695.5" y="390" width="375" height="190" as="geometry" />
        </mxCell>
        <mxCell id="SVt2OxgqQpg5DrYb4KZv-1" value="&lt;h1&gt;Decoding&lt;/h1&gt;&lt;p&gt;Airports&lt;br&gt;Airline&lt;br&gt;GEO Locations&lt;br&gt;Cruise&lt;br&gt;Hotels&lt;br&gt;Cars&lt;br&gt;Rails&lt;/p&gt;" style="text;html=1;strokeColor=#d6b656;fillColor=#fff2cc;spacing=5;spacingTop=-20;whiteSpace=wrap;overflow=hidden;rounded=0;" parent="1" vertex="1">
          <mxGeometry x="825" y="23" width="125" height="160" as="geometry" />
        </mxCell>
        <mxCell id="SVt2OxgqQpg5DrYb4KZv-2" value="&lt;h1&gt;TripXMLAdmin&lt;/h1&gt;&lt;p&gt;Customers&lt;br&gt;Servers&lt;br&gt;Users&lt;br&gt;Providers&lt;br&gt;Systems&lt;br&gt;PCC&lt;br&gt;WSDL Schemas&lt;/p&gt;" style="text;html=1;strokeColor=#82b366;fillColor=#d5e8d4;spacing=5;spacingTop=-20;whiteSpace=wrap;overflow=hidden;rounded=0;" parent="1" vertex="1">
          <mxGeometry x="350" y="10" width="180" height="150" as="geometry" />
        </mxCell>
        <mxCell id="S-nyKYHqi0cGhIQpScfs-48" value="T-robot" style="outlineConnect=0;dashed=0;verticalLabelPosition=bottom;verticalAlign=top;align=center;html=1;shape=mxgraph.aws3.maintenance_window;fillColor=#759C3E;gradientColor=none;" parent="1" vertex="1">
          <mxGeometry x="900" y="459.5" width="85" height="70" as="geometry" />
        </mxCell>
        <mxCell id="S-nyKYHqi0cGhIQpScfs-49" value="Contract Manager" style="outlineConnect=0;dashed=0;verticalLabelPosition=bottom;verticalAlign=top;align=center;html=1;shape=mxgraph.aws3.emr_engine;fillColor=#F58534;gradientColor=none;" parent="1" vertex="1">
          <mxGeometry x="805" y="439.5" width="82.5" height="60" as="geometry" />
        </mxCell>
        <mxCell id="S-nyKYHqi0cGhIQpScfs-54" value="" style="endArrow=classic;html=1;rounded=0;exitX=1;exitY=0.5;exitDx=0;exitDy=0;" parent="1" source="S-nyKYHqi0cGhIQpScfs-35" target="S-nyKYHqi0cGhIQpScfs-48" edge="1">
          <mxGeometry width="50" height="50" relative="1" as="geometry">
            <mxPoint x="555" y="503" as="sourcePoint" />
            <mxPoint x="945" y="508" as="targetPoint" />
          </mxGeometry>
        </mxCell>
        <mxCell id="S-nyKYHqi0cGhIQpScfs-55" value="" style="endArrow=classic;html=1;rounded=0;exitX=1;exitY=1;exitDx=0;exitDy=0;" parent="1" source="S-nyKYHqi0cGhIQpScfs-35" target="S-nyKYHqi0cGhIQpScfs-49" edge="1">
          <mxGeometry width="50" height="50" relative="1" as="geometry">
            <mxPoint x="555" y="503" as="sourcePoint" />
            <mxPoint x="605" y="453" as="targetPoint" />
          </mxGeometry>
        </mxCell>
        <mxCell id="4bImhPP7mC5-an95w_Qq-3" value="" style="swimlane;startSize=0;fillColor=#d5e8d4;strokeColor=#82b366;" vertex="1" parent="1">
          <mxGeometry x="199" y="203" width="283" height="87" as="geometry">
            <mxRectangle x="290" y="340" width="50" height="40" as="alternateBounds" />
          </mxGeometry>
        </mxCell>
        <mxCell id="39150e848f15840c-5" value="Server Configuration API methods" style="shape=component;align=left;spacingLeft=36;rounded=0;shadow=0;comic=0;labelBackgroundColor=none;strokeWidth=1;fontFamily=Verdana;fontSize=12;html=1;" parent="4bImhPP7mC5-an95w_Qq-3" vertex="1">
          <mxGeometry x="19.5" y="13" width="250.5" height="60" as="geometry" />
        </mxCell>
        <mxCell id="4bImhPP7mC5-an95w_Qq-4" value="" style="swimlane;startSize=0;fillColor=#fff2cc;strokeColor=#d6b656;" vertex="1" parent="1">
          <mxGeometry x="570" y="201.5" width="230" height="80" as="geometry" />
        </mxCell>
        <mxCell id="S-nyKYHqi0cGhIQpScfs-4" value="Decoding API methods" style="shape=component;align=left;spacingLeft=36;rounded=0;shadow=0;comic=0;labelBackgroundColor=none;strokeWidth=1;fontFamily=Verdana;fontSize=12;html=1;" parent="4bImhPP7mC5-an95w_Qq-4" vertex="1">
          <mxGeometry x="30" y="10" width="190" height="60" as="geometry" />
        </mxCell>
        <mxCell id="4bImhPP7mC5-an95w_Qq-5" value="" style="endArrow=none;html=1;rounded=0;exitX=0;exitY=1;exitDx=0;exitDy=0;" edge="1" parent="1" source="S-nyKYHqi0cGhIQpScfs-35" target="S-nyKYHqi0cGhIQpScfs-4">
          <mxGeometry width="50" height="50" relative="1" as="geometry">
            <mxPoint x="698.4289321881347" y="313.0710678118653" as="sourcePoint" />
            <mxPoint x="364.4199968568189" y="651" as="targetPoint" />
          </mxGeometry>
        </mxCell>
      </root>
    </mxGraphModel>
  </diagram>
</mxfile>
